<?xml version="1.0" encoding="UTF-8" standalone="no"?>
<svg width="43px" height="43px" viewBox="0 0 43 43" version="1.1" xmlns="http://www.w3.org/2000/svg" xmlns:xlink="http://www.w3.org/1999/xlink">
    <!-- Generator: Sketch 44.1 (41455) - http://www.bohemiancoding.com/sketch -->
    <title>Page 1</title>
    <desc>Created with Sketch.</desc>
    <defs>
        <polygon id="path-1" points="0 23.9263509 0 0.0634306748 35.9410768 0.0634306748 35.9410768 23.9263509"></polygon>
        <polygon id="path-3" points="0 23.9366135 35.9410842 23.9366135 35.9410842 0.0736196319 0 0.0736196319"></polygon>
    </defs>
    <g id="Page-1" stroke="none" stroke-width="1" fill="none" fill-rule="evenodd">
        <g id="积分商城首页—未登录" transform="translate(-1255.000000, -1153.000000)">
            <g id="Group-42" transform="translate(965.000000, 1074.000000)">
                <g id="Page-1" transform="translate(312.000000, 100.500000) rotate(-45.000000) translate(-312.000000, -100.500000) translate(294.000000, 88.000000)">
                    <g id="Group-3" transform="translate(0.000000, 0.010233)">
                        <mask id="mask-2" fill="white">
                            <use xlink:href="#path-1"></use>
                        </mask>
                        <g id="Clip-2"></g>
                        <path d="M29.9511055,11.9949644 C29.9511055,14.7541546 32.0512287,17.0331975 34.7433191,17.3308417 L34.7433191,22.7331975 L1.198046,22.7331975 L1.198046,17.3308417 C3.89013634,17.0331975 5.98996386,14.7541546 5.98996386,11.9949644 C5.98996386,9.23577423 3.89013634,6.95658405 1.198046,6.6590135 L1.198046,1.25658405 L34.7433191,1.25658405 L34.7433191,6.6590135 C32.0512287,6.95658405 29.9511055,9.23577423 29.9511055,11.9949644 M35.3422349,7.8188908 C35.6734053,7.8188908 35.9410768,7.55201963 35.9410768,7.22235092 L35.9410768,0.659970552 C35.9410768,0.33030184 35.6734053,0.0634306748 35.3422349,0.0634306748 L0.598908419,0.0634306748 C0.267664066,0.0634306748 -7.39219713e-06,0.33030184 -7.39219713e-06,0.659970552 L-7.39219713e-06,7.22235092 C-7.39219713e-06,7.55201963 0.267664066,7.8188908 0.598908419,7.8188908 C2.91067023,7.8188908 4.79191047,9.69251043 4.79191047,11.9949644 C4.79191047,14.2972712 2.91067023,16.1708908 0.598908419,16.1708908 C0.267664066,16.1708908 -7.39219713e-06,16.437762 -7.39219713e-06,16.7674307 L-7.39219713e-06,23.329811 C-7.39219713e-06,23.6594798 0.267664066,23.9263509 0.598908419,23.9263509 L35.3422349,23.9263509 C35.6734053,23.9263509 35.9410768,23.6594798 35.9410768,23.329811 L35.9410768,16.7674307 C35.9410768,16.437762 35.6734053,16.1708908 35.3422349,16.1708908 C33.0303992,16.1708908 31.1491589,14.2972712 31.1491589,11.9949644 C31.1491589,9.69251043 33.0303992,7.8188908 35.3422349,7.8188908" id="Fill-1" fill="#000000" mask="url(#mask-2)"></path>
                    </g>
                    <mask id="mask-4" fill="white">
                        <use xlink:href="#path-3"></use>
                    </mask>
                    <g id="Clip-5"></g>
                    <path d="M10.7827762,17.9708466 L22.7622012,17.9708466 L22.7622012,6.04056442 L10.7827762,6.04056442 L10.7827762,17.9708466 Z M23.3610431,4.84741104 L10.1839343,4.84741104 C9.85268994,4.84741104 9.58472279,5.11428221 9.58472279,5.44402454 L9.58472279,18.5673865 C9.58472279,18.8971288 9.85268994,19.164 10.1839343,19.164 L23.3610431,19.164 C23.6922875,19.164 23.9602546,18.8971288 23.9602546,18.5673865 L23.9602546,5.44402454 C23.9602546,5.11428221 23.6922875,4.84741104 23.3610431,4.84741104 L23.3610431,4.84741104 Z" id="Fill-4" fill="#000000" mask="url(#mask-4)"></path>
                    <polygon id="Fill-6" fill="#000000" mask="url(#mask-4)" points="27.5550062 3.65307975 28.7530595 3.65307975 28.7530595 2.45992638 27.5550062 2.45992638"></polygon>
                    <polygon id="Fill-7" fill="#000000" mask="url(#mask-4)" points="27.5550062 7.2326135 28.7530595 7.2326135 28.7530595 6.03946012 27.5550062 6.03946012"></polygon>
                    <polygon id="Fill-8" fill="#000000" mask="url(#mask-4)" points="27.5550062 10.8120736 28.7530595 10.8120736 28.7530595 9.61892025 27.5550062 9.61892025"></polygon>
                    <polygon id="Fill-9" fill="#000000" mask="url(#mask-4)" points="27.5550062 14.3913865 28.7530595 14.3913865 28.7530595 13.1983804 27.5550062 13.1983804"></polygon>
                    <polygon id="Fill-10" fill="#000000" mask="url(#mask-4)" points="27.5550062 17.9708466 28.7530595 17.9708466 28.7530595 16.7776933 27.5550062 16.7776933"></polygon>
                    <polygon id="Fill-11" fill="#000000" mask="url(#mask-4)" points="27.5550062 21.5503067 28.7530595 21.5503067 28.7530595 20.3571534 27.5550062 20.3571534"></polygon>
                    <path d="M13.7774957,10.8120442 L19.7674669,10.8120442 C20.0987113,10.8120442 20.3666784,10.545173 20.3666784,10.2154307 C20.3666784,9.88561472 20.0987113,9.6188908 19.7674669,9.6188908 L13.7774957,9.6188908 C13.4463253,9.6188908 13.1783581,9.88561472 13.1783581,10.2154307 C13.1783581,10.545173 13.4463253,10.8120442 13.7774957,10.8120442" id="Fill-12" fill="#000000" mask="url(#mask-4)"></path>
                    <path d="M13.7774957,14.3913718 L19.7674669,14.3913718 C20.0987113,14.3913718 20.3666784,14.1246479 20.3666784,13.7949055 C20.3666784,13.4650896 20.0987113,13.1983656 19.7674669,13.1983656 L13.7774957,13.1983656 C13.4463253,13.1983656 13.1783581,13.4650896 13.1783581,13.7949055 C13.1783581,14.1246479 13.4463253,14.3913718 13.7774957,14.3913718" id="Fill-13" fill="#000000" mask="url(#mask-4)"></path>
                </g>
            </g>
        </g>
    </g>
</svg>